<svg width="59" height="59" viewBox="0 0 59 59" fill="none" xmlns="http://www.w3.org/2000/svg">
<path fill-rule="evenodd" clip-rule="evenodd" d="M44.71 0.0795898C53.0504 0.0795898 58.4604 5.58199 58.4604 14.0649V44.7866C58.4604 53.2695 53.0504 58.7719 44.71 58.7719H14.5042C6.16378 58.7719 0.753784 53.2695 0.753784 44.7866V14.0649C0.753784 5.58199 6.16378 0.0795898 14.5042 0.0795898H44.71Z" fill="black"/>
<path fill-rule="evenodd" clip-rule="evenodd" d="M32.4372 15.2588C32.4372 15.2588 37.1776 15.1546 39.2465 19.4758C39.2465 19.4758 40.9079 22.5461 39.2465 26.4862C39.2465 26.4862 38.4363 28.0015 36.8551 29.0014C36.8551 29.0014 40.5927 30.7634 40.5508 35.6701C40.5508 35.6701 40.762 43.5257 33.0904 43.5721C25.4188 43.6188 18.6627 43.5721 18.6627 43.5721V15.2588H32.4372Z" stroke="#DB9B20" stroke-width="6"/>
</svg>
